<svg version="1.1" viewBox="0 0 33.073 33.073" xmlns="http://www.w3.org/2000/svg"><defs><filter id="filter2542" x="-.0056656" y="-.023557" width="1.0113" height="1.0471" color-interpolation-filters="sRGB"><feGaussianBlur stdDeviation="0.20274627"/></filter><filter id="filter2546" x="-.23225" y="-.01879" width="1.4645" height="1.0376" color-interpolation-filters="sRGB"><feGaussianBlur stdDeviation="0.20274627"/></filter><filter id="filter2550" x="-.11443" y="-.017575" width="1.2289" height="1.0351" color-interpolation-filters="sRGB"><feGaussianBlur stdDeviation="0.20274627"/></filter><filter id="filter2554" x="-.005537" y="-.027562" width="1.0111" height="1.0551" color-interpolation-filters="sRGB"><feGaussianBlur stdDeviation="0.20274627"/></filter><filter id="filter2558" x="-.003058" y="-.0046394" width="1.0061" height="1.0093" color-interpolation-filters="sRGB"><feGaussianBlur stdDeviation="0.20274627"/></filter><filter id="filter2562" x="-.29608" y="-.071162" width="1.5922" height="1.1423" color-interpolation-filters="sRGB"><feGaussianBlur stdDeviation="1.8464686"/></filter><filter id="filter2566" x="-7.5287" y="-.52602" width="16.057" height="2.052" color-interpolation-filters="sRGB"><feGaussianBlur stdDeviation="13.414673"/></filter><filter id="filter2570" x="-.733" y="-.10517" width="2.466" height="1.2103" color-interpolation-filters="sRGB"><feGaussianBlur stdDeviation="2.6937406"/></filter><filter id="filter2574" x="-.2811" y="-.095099" width="1.5622" height="1.1902" color-interpolation-filters="sRGB"><feGaussianBlur stdDeviation="2.1286837"/></filter><filter id="filter2578" x="-.1857" y="-.097735" width="1.3714" height="1.1955" color-interpolation-filters="sRGB"><feGaussianBlur stdDeviation="2.067956"/></filter><filter id="filter2586" x="-.35586" y="-.2755" width="1.7117" height="1.551" color-interpolation-filters="sRGB"><feGaussianBlur stdDeviation="4.7554738"/></filter><filter id="filter2782" x="-.0056656" y="-.023557" width="1.0113" height="1.0471" color-interpolation-filters="sRGB"><feGaussianBlur stdDeviation="0.20274627"/></filter><filter id="filter2786" x="-.23225" y="-.01879" width="1.4645" height="1.0376" color-interpolation-filters="sRGB"><feGaussianBlur stdDeviation="0.20274627"/></filter><filter id="filter2790" x="-.11443" y="-.017575" width="1.2289" height="1.0351" color-interpolation-filters="sRGB"><feGaussianBlur stdDeviation="0.20274627"/></filter><filter id="filter2794" x="-.005537" y="-.027562" width="1.0111" height="1.0551" color-interpolation-filters="sRGB"><feGaussianBlur stdDeviation="0.20274627"/></filter><filter id="filter2798" x="-.003058" y="-.0046394" width="1.0061" height="1.0093" color-interpolation-filters="sRGB"><feGaussianBlur stdDeviation="0.20274627"/></filter><filter id="filter6978" x="-.10194" y="-.06913" width="1.2039" height="1.1383" color-interpolation-filters="sRGB"><feGaussianBlur stdDeviation="1.3395285"/></filter><filter id="filter6982" x="-.12029" y="-.063308" width="1.2406" height="1.1266" color-interpolation-filters="sRGB"><feGaussianBlur stdDeviation="1.3395285"/></filter><filter id="filter6986" x="-.17689" y="-.059844" width="1.3538" height="1.1197" color-interpolation-filters="sRGB"><feGaussianBlur stdDeviation="1.3395285"/></filter><filter id="filter6990" x="-.3645" y="-.052298" width="1.729" height="1.1046" color-interpolation-filters="sRGB"><feGaussianBlur stdDeviation="1.3395285"/></filter><filter id="filter6994" x="-.75179" y="-.052526" width="2.5036" height="1.1051" color-interpolation-filters="sRGB"><feGaussianBlur stdDeviation="1.3395285"/></filter><filter id="filter7002" x="-.21317" y="-.051233" width="1.4263" height="1.1025" color-interpolation-filters="sRGB"><feGaussianBlur stdDeviation="1.3293759"/></filter><filter id="filter7018" x="-.088964" y="-.068875" width="1.1779" height="1.1378" color-interpolation-filters="sRGB"><feGaussianBlur stdDeviation="1.1888685"/></filter><filter id="filter7037" x="-.02022" y="-.023556" width="1.0404" height="1.0471" color-interpolation-filters="sRGB"><feGaussianBlur stdDeviation="1.340608"/></filter><filter id="filter7077" x="-.0001115" y="-.0001299" width="1.0002" height="1.0003" color-interpolation-filters="sRGB"><feGaussianBlur stdDeviation="0.0073926991"/></filter></defs><g filter="url(#filter7077)" opacity=".995"><g transform="matrix(.19977 0 0 .19977 -5.1113 -8.47)" fill="none"><g filter="url(#filter7037)" stroke="#000" stroke-width=".565"><path d="m54.318 185.31c-3.3318 6.3122 36.201 14.641 36.207 14.642 21.342 3.3434 48.145 3.5344 49.42-1.5119 1.4891-5.8905-26.465-12.223-30.333-12.851-17.308-4.0177-32.325-4.7335-48.714-2.9904-5.3501 0.569-5.7888 1.2105-6.5812 2.7117z" filter="url(#filter2782)"/><path d="m56.413 159.41c-2.0951 25.896-2.0951 25.896-2.0951 25.896z" filter="url(#filter2786)"/><path d="m144.29 170.66-4.2522 27.687z" filter="url(#filter2790)"/><path d="m56.413 159.41c2.376-3.8752 5.9413-4.5096 9.5439-5.1027 14.057-2.3142 28.541-1.3174 43.278 1.1339 11.158 1.8559 22.297 4.8365 30.663 9.4022 3.44 1.8771 3.9817 3.7901 4.394 5.8114" filter="url(#filter2794)"/><path d="m56.413 159.41c-1.0967-5.7104-2.8074-11.298-5.164-16.756 0.42903-0.10726-20.048-33.113-20.379-33.676-1.4686-2.4923-2.736-14.956-1.6704-16.303 2.5411-3.2126 2.9283-7.5692 7.8176-9.7553 0.86733-7.5659 8.6158-8.4965 16.37-9.4213 2.464-5.6837 12.049-5.5033 22.985-4.2095 2.4216-5.6011 12.099-3.4933 22.451-0.66817 5.7427-3.6618 13.449-2.4155 22.718 2.7395 7.6434-0.4611 15.38-1.6931 22.05 5.8799 6.5802 1.6857 14.434-2.0072 18.976 8.2854 7.0741 2.0989 16.366 2.1703 15.101 11.893 6.264 2.1619 12.814 4.109 8.2854 14.366 3.8173 5.7527 2.4245 13.643-7.0874 21.156-14.757 12.395-26.088 22.266-34.573 37.715" filter="url(#filter2798)"/></g><g stroke="#4d4d4d" stroke-linecap="round" stroke-linejoin="round" stroke-width="1.8521"><path d="m54.318 185.31c-3.3318 6.3122 36.201 14.641 36.207 14.642 21.342 3.3434 48.145 3.5344 49.42-1.5119 1.4891-5.8905-26.465-12.223-30.333-12.851-17.308-4.0177-32.325-4.7335-48.714-2.9904-5.3501 0.569-5.7888 1.2105-6.5812 2.7117z" filter="url(#filter2542)" style="mix-blend-mode:normal"/><path d="m56.413 159.41c-2.0951 25.896-2.0951 25.896-2.0951 25.896z" filter="url(#filter2546)" style="mix-blend-mode:normal"/><path d="m144.29 170.66-4.2522 27.687z" filter="url(#filter2550)" style="mix-blend-mode:normal"/><path d="m56.413 159.41c2.376-3.8752 5.9413-4.5096 9.5439-5.1027 14.057-2.3142 28.541-1.3174 43.278 1.1339 11.158 1.8559 22.297 4.8365 30.663 9.4022 3.44 1.8771 3.9817 3.7901 4.394 5.8114" filter="url(#filter2554)" style="mix-blend-mode:normal"/><path d="m56.413 159.41c-1.0967-5.7104-2.8074-11.298-5.164-16.756 0.42903-0.10726-20.048-33.113-20.379-33.676-1.4686-2.4923-2.736-14.956-1.6704-16.303 2.5411-3.2126 2.9283-7.5692 7.8176-9.7553 0.86733-7.5659 8.6158-8.4965 16.37-9.4213 2.464-5.6837 12.049-5.5033 22.985-4.2095 2.4216-5.6011 12.099-3.4933 22.451-0.66817 5.7427-3.6618 13.449-2.4155 22.718 2.7395 7.6434-0.4611 15.38-1.6931 22.05 5.8799 6.5802 1.6857 14.434-2.0072 18.976 8.2854 7.0741 2.0989 16.366 2.1703 15.101 11.893 6.264 2.1619 12.814 4.109 8.2854 14.366 3.8173 5.7527 2.4245 13.643-7.0874 21.156-14.757 12.395-26.088 22.266-34.573 37.715" filter="url(#filter2558)" style="mix-blend-mode:normal"/></g><g stroke="#000" stroke-width=".565"><path d="m51.316 80.715c1.1019 21.19 7.5207 41.789 14.967 62.274-8.2413-20.397-13.14-41.165-14.967-62.274z" filter="url(#filter2562)" style="mix-blend-mode:normal"/><path d="m73.499 76.974c1.8323 20.74 3.1583 41.177 4.2763 61.205-2.5459-20.402-3.8675-40.803-4.2763-61.205z" filter="url(#filter2566)" style="mix-blend-mode:normal"/><path d="m102.1 78.31c-5.7722 21.203-6.405 40.269-8.8199 61.472 2.5688-21.097 2.3471-39.724 8.8199-61.472z" filter="url(#filter2570)" style="mix-blend-mode:normal"/><path d="m126.42 89.268c-6.8167 17.654-15.31 34.749-18.174 53.721 2.9156-18.431 11.271-35.955 18.174-53.721z" filter="url(#filter2574)" style="mix-blend-mode:normal"/><path d="m150.21 97.019c-12.234 16.927-20.158 33.854-26.727 50.781 5.7166-17.725 15.327-34.477 26.727-50.781z" filter="url(#filter2578)" style="mix-blend-mode:normal"/><path d="m176.4 114.39c-12.707 11.289-24.971 23.131-32.072 41.427 8.7123-16.183 19.806-29.508 32.072-41.427z" filter="url(#filter2586)" style="mix-blend-mode:normal"/><path d="m51.316 80.715c1.1019 21.19 7.5207 41.789 14.967 62.274-8.2413-20.397-13.14-41.165-14.967-62.274z" filter="url(#filter7002)"/><path d="m73.499 76.974c1.8323 20.74 3.1583 41.177 4.2763 61.205-2.5459-20.402-3.8675-40.803-4.2763-61.205z" filter="url(#filter6994)"/><path d="m102.1 78.31c-5.7722 21.203-6.405 40.269-8.8199 61.472 2.5688-21.097 2.3471-39.724 8.8199-61.472z" filter="url(#filter6990)"/><path d="m126.42 89.268c-6.8167 17.654-15.31 34.749-18.174 53.721 2.9156-18.431 11.271-35.955 18.174-53.721z" filter="url(#filter6986)"/><path d="m150.21 97.019c-12.234 16.927-20.158 33.854-26.727 50.781 5.7166-17.725 15.327-34.477 26.727-50.781z" filter="url(#filter6982)"/><path d="m167.04 107.98c-20.423 13.024-24.745 30.073-31.538 46.505 4.9756-20.248 16.611-34.787 31.538-46.505z" filter="url(#filter6978)"/><path d="m176.4 114.39c-12.707 11.289-24.971 23.131-32.072 41.427 8.7123-16.183 19.806-29.508 32.072-41.427z" filter="url(#filter7018)"/></g></g></g></svg>
