<?xml version="1.0" standalone="no"?>
<!DOCTYPE svg PUBLIC "-//W3C//DTD SVG 20010904//EN"
 "http://www.w3.org/TR/2001/REC-SVG-20010904/DTD/svg10.dtd">
<svg version="1.0" xmlns="http://www.w3.org/2000/svg"
 width="260.000000pt" height="260.000000pt" viewBox="0 0 260.000000 260.000000"
 preserveAspectRatio="xMidYMid meet">
<metadata>
Created by potrace 1.11, written by Peter Selinger 2001-2013
</metadata>
<g transform="translate(0.000000,260.000000) scale(0.100000,-0.100000)"
fill="#000000" stroke="none">
<path d="M880 2392 c-38 -4 -78 -22 -83 -37 -4 -9 -35 -11 -129 -9 -138 4
-186 -6 -227 -47 -15 -15 -43 -29 -66 -33 -131 -22 -197 -59 -210 -114 -3 -15
-21 -40 -39 -54 -19 -15 -49 -53 -66 -85 -29 -51 -33 -67 -32 -127 2 -141 10
-157 252 -546 52 -83 102 -172 116 -205 34 -81 74 -239 70 -274 -4 -34 -10
-96 -21 -256 -3 -38 -8 -89 -10 -111 -5 -37 -2 -45 25 -67 37 -32 151 -76 313
-122 175 -49 252 -64 397 -80 30 -3 73 -8 94 -11 70 -10 379 -6 433 5 100 20
108 28 123 128 7 48 14 97 16 108 9 55 24 155 30 200 14 115 170 317 404 524
221 195 246 220 274 270 32 60 38 129 15 176 -13 26 -13 36 0 77 12 40 12 52
0 85 -12 32 -24 43 -82 72 -60 30 -67 37 -67 63 0 71 -55 114 -178 139 -53 11
-63 17 -79 46 -10 19 -34 45 -55 59 -35 25 -53 29 -171 38 -47 4 -64 10 -98
40 -59 50 -111 65 -226 64 -80 -1 -106 3 -138 19 -99 51 -214 66 -281 38 -31
-13 -43 -13 -99 0 -81 19 -173 31 -205 27z"/>
</g>
</svg>
