<svg version="1.1" xmlns="http://www.w3.org/2000/svg" xmlns:osb="http://www.openswatchbook.org/uri/2009/osb"><defs><clipPath id="clipPath2529"><g transform="translate(102.91 120.06)" filter="url(#filter7077)" opacity=".995"><path d="m5.7365 27.003c-0.66559 1.261 7.2318 2.9248 7.2331 2.925 4.2634 0.6679 9.6178 0.70605 9.8726-0.30203 0.29748-1.1767-5.2868-2.4418-6.0595-2.5673-3.4577-0.8026-6.4574-0.94559-9.7315-0.59739-1.0688 0.11367-1.1564 0.24183-1.3147 0.5417z" fill="none" stroke="#1a1a1a" stroke-linecap="round" stroke-linejoin="round" stroke-width=".26458" style="mix-blend-mode:normal;paint-order:fill markers stroke"/><path d="m6.155 21.83 17.555 2.2463-0.84946 5.5309-17.125-2.6041z" fill="none"/><path d="m6.155 21.83c-0.41853 5.1732-0.41853 5.1732-0.41853 5.1732z" fill="none" stroke="#1a1a1a" stroke-linecap="round" stroke-linejoin="round" stroke-width=".26458" style="mix-blend-mode:normal;paint-order:fill markers stroke"/><path d="m23.71 24.076-0.84946 5.5309z" fill="none" stroke="#1a1a1a" stroke-linecap="round" stroke-linejoin="round" stroke-width=".26458" style="mix-blend-mode:normal;paint-order:fill markers stroke"/><path d="m6.155 21.83c-0.21909-1.1407-0.56082-2.257-1.0316-3.3474 0.085707-0.021427-4.0049-6.615-4.0711-6.7274-0.29337-0.49788-0.54656-2.9878-0.3337-3.2569 0.50763-0.64177 0.58498-1.5121 1.5617-1.9488 0.17326-1.5114 1.7212-1.6973 3.2702-1.8821 0.49222-1.1354 2.4069-1.0994 4.5917-0.84092 0.48375-1.1189 2.4169-0.69785 4.4849-0.13348 1.1472-0.73151 2.6866-0.48255 4.5383 0.54727 1.5269-0.092113 3.0725-0.33822 4.4048 1.1746 1.3145 0.33676 2.8835-0.40098 3.7908 1.6551 1.4132 0.41928 3.2694 0.43355 3.0166 2.3759 1.2513 0.43188 2.5599 0.82085 1.6551 2.8698 0.76257 1.1492 0.48433 2.7254-1.4158 4.2263-2.9479 2.4761-5.2116 4.4479-6.9066 7.5342" fill="none" stroke="#1a1a1a" stroke-linecap="round" stroke-linejoin="round" stroke-width=".26458" style="mix-blend-mode:normal;paint-order:fill markers stroke"/></g></clipPath><filter id="filter4538" x="-1.1276e-6" y="-1.2824e-6" width="1" height="1" color-interpolation-filters="sRGB"><feGaussianBlur stdDeviation="6.6036498e-05"/></filter></defs><g filter="url(#filter4538)"><g><path transform="matrix(1.0686 0 0 1.0686 -110.17 -128.75)" d="m49.137 86.179h131.54v115.66h-131.54v-115.66z" clip-path="url(#clipPath2529)" fill="#1a1a1a" fill-rule="evenodd" stroke="#333" stroke-linecap="round" stroke-linejoin="round" stroke-width="2" style="paint-order:fill markers stroke"/><path transform="translate(-101.98 -119.36)" d="m49.137 86.179h131.54v115.66h-131.54v-115.66z" clip-path="url(#clipPath2529)" fill="#fff" fill-rule="evenodd" stroke="#000" stroke-linecap="round" stroke-linejoin="round" stroke-width="2" style="paint-order:fill markers stroke"/><g fill="none" stroke="#4d4d4d" stroke-width=".213"><path d="m5.7409 6.9975c0.22474 4.2912 1.5332 8.4286 2.9899 12.44-1.6077-3.968-2.6248-8.174-2.9899-12.44z" filter="url(#filter7077)" opacity=".995"/><path d="m10.172 6.25c0.35973 4.0699 0.62674 8.1475 0.85427 12.227-0.50642-4.0562-0.77263-8.1405-0.85427-12.227z" filter="url(#filter7077)" opacity=".995"/><path d="m15.885 6.517c-1.1139 4.0029-1.301 8.1723-1.7619 12.28 0.48668-4.107 0.53265-8.2954 1.7619-12.28z" filter="url(#filter7077)" opacity=".995"/><path d="m21.972 8.6116c-1.3605 3.5191-3.0647 6.9649-3.6306 10.732 0.60248-3.7566 2.2683-7.213 3.6306-10.732z" filter="url(#filter7077)" opacity=".995" style="mix-blend-mode:normal"/><path d="m27.197 10.16c-2.2569 3.1031-3.9669 6.5704-5.3392 10.144 1.183-3.6588 3.1477-7.006 5.3392-10.144z" filter="url(#filter7077)" opacity=".995" style="mix-blend-mode:normal"/><path d="m30.728 13.725c-2.6445 2.2972-5.1591 4.9382-6.407 8.2757 1.6561-3.0925 3.8924-5.8421 6.407-8.2757z" filter="url(#filter7077)" opacity=".995"/></g></g></g></svg>
